<svg width="1000" height="1000" viewBox="0 0 1000 1000" fill="none" xmlns="http://www.w3.org/2000/svg">
<g clip-path="url(#clip0_102_15020)">
<path d="M672.5 717.333C687 717.333 692.834 723.667 679.5 726.167C666.167 728.667 659.167 732 672 733.333C684.834 734.667 751.167 732 758.834 740.5C766.334 749 573.667 750.167 532.167 750.167C490.667 750.167 439.167 750 388.334 743.333C360.667 739.667 346.167 724.667 366.667 722C416.667 715.167 657.834 717.333 672.5 717.333Z" fill="#C5DFFF"/>
<path d="M357.5 748C364.5 748 367.167 755.333 360.833 758.167C354.5 761 310.333 785.833 290.667 785.833C271 785.833 270.667 783 265.333 777.5C260 772.167 235.833 767.333 222.5 766.833C209.167 766.333 202 756.333 211.667 753.167C235.667 745.5 350.5 748 357.5 748Z" fill="#C5DFFF"/>
<path d="M803.334 751.167C806 751.333 809.667 755.167 808.334 759C804.667 768.833 793.5 774.667 776.834 774C750.667 773 749.667 756 761.5 753C771.667 750.167 800.667 751 803.334 751.167Z" fill="#C5DFFF"/>
<path d="M368.833 744.833L280.5 781.5C280.5 781.5 261.5 780.5 238.5 768.833C221.833 760.333 203.333 735.667 203.333 735.667L213 734.167L310.833 718.167C310.833 718.167 314.666 723.5 327 732.833C328.666 734.167 330.833 735.333 333.166 736.5C347 742.667 368.833 744.833 368.833 744.833Z" fill="#9C27B0"/>
<path d="M368.833 744.833L342.833 755.666L280.333 781.5C280.333 781.5 261.333 780.5 238.333 768.833C231.333 765.333 224 758.833 217.833 752.5C209.333 743.833 203.167 735.666 203.167 735.666L212.833 734.167C224.666 738.167 243.333 742.666 267 743C295.833 743.5 320.167 739.166 333 736.333C347 742.666 368.833 744.833 368.833 744.833Z" fill="#FC75BC"/>
<path d="M343 755.5L280.5 781.333C280.5 781.333 261.5 780.333 238.5 768.667C231.5 765.167 224.167 758.667 218 752.333C232.833 755.667 253.333 759 278.167 759.333C303.5 759.833 326.167 757.833 343 755.5Z" fill="#F45BB3"/>
<path d="M283.833 776C283.167 777.333 280.667 778.333 278.333 778.333C276 778.333 274.833 777.333 275.5 776C276.167 774.666 278.667 773.667 281 773.667C283.333 773.667 284.5 774.833 283.833 776Z" fill="#9C27B0"/>
<path d="M357.5 746.833C356.833 748.167 354.333 749.167 352 749.167C349.667 749.167 348.5 748.167 349.167 746.833C349.833 745.5 352.333 744.5 354.667 744.5C357 744.667 358.167 745.667 357.5 746.833Z" fill="#9C27B0"/>
<path d="M311.333 723.333C310.5 724.5 308 725.333 305.667 725C303.333 724.833 302.167 723.667 303 722.5C303.833 721.333 306.333 720.5 308.667 720.833C311.167 721 312.333 722.167 311.333 723.333Z" fill="#FC75BC"/>
<path d="M217.666 739C216.833 740.166 214.166 740.833 212 740.5C209.666 740.166 208.666 739 209.5 737.833C210.333 736.666 213 736 215.166 736.333C217.5 736.666 218.5 737.833 217.666 739Z" fill="#9C27B0"/>
<path d="M801.667 743.167L783.667 741.333L768.833 751L777.667 762.333L796.167 763.5L807.5 753.5L801.667 743.167ZM788.833 757C786 757 783.667 756 782 754.667C783.5 753 786.333 751.833 789.667 751.833C792.5 751.833 794.834 752.833 796.5 754.167C795.167 755.833 792.167 757 788.833 757Z" fill="#9C27B0"/>
<path d="M768.833 750.833L770.334 763.333L778 771L777.5 762.167L768.833 750.833Z" fill="#F45BB3"/>
<path d="M778 771L796.167 772.167L796 763.333L777.5 762.167L778 771Z" fill="#FC75BC"/>
<path d="M807.333 753.333L806.833 761.833L796.167 772.167L796 763.333L807.333 753.333Z" fill="#FFB3DB"/>
<path d="M797.667 751.667C797.667 752.667 797.333 753.5 796.667 754.167C795.167 752.833 792.667 751.833 789.833 751.833C786.5 751.833 783.667 752.833 782.167 754.667C781 753.667 780.333 752.5 780.5 751.167C780.5 748.167 784.5 745.667 789.333 745.833C793.833 746 797.667 748.5 797.667 751.667Z" fill="#F45BB3"/>
<path d="M402.666 804.333C389.166 809.833 376.166 803 376.166 803L299.5 840.333C299.333 843 297.666 860.667 276.833 865.167C257.833 869.167 250.166 858 250.166 858L254.166 855.667L274.333 843.833L267.666 836.333L243 848C243 848 241.833 845.333 241.833 841.5C241.833 839.833 242 837.833 242.666 835.833C244.833 829.5 252.5 820 266 817.833C279.5 815.667 286 821 286 821L367.833 786.167C367.833 786.167 368 781.333 371.833 777.5C375.5 773.5 382.166 768.167 391.333 769C396.5 769.333 400.333 771 402.5 772.333C404.333 773.333 405.166 774.167 405.166 774.167L384.833 785.167L392.166 793.333L411 783.5C411 783.5 412.5 784.333 413.666 787C413.833 787.5 414 788 414.166 788.5C415.5 792.5 416.166 798.833 402.666 804.333Z" fill="#D2E9FF"/>
<path d="M402 806.5C388.5 812 376.166 803.167 376.166 803.167L299.5 840.5C299.333 843.167 297.667 860.833 276.833 865.333C257.833 869.333 250.167 858.167 250.167 858.167L254.166 855.833C257.833 858.333 266.5 862.5 279.5 858C297.166 851.833 295.5 835 295.5 835L376.666 797.833C376.666 797.833 388.333 806.833 403 799.667C411.666 795.5 413.833 790.333 414 787C414.166 787.5 414.333 788 414.5 788.5C415.5 792.5 415.5 800.833 402 806.5Z" fill="#AED8FC"/>
<path d="M276.833 842L274.167 844.167L267.5 836.667L242.833 848.333C242.833 848.333 241.667 845.667 241.667 841.833L267.833 831.333L276.833 842Z" fill="#AED8FC"/>
<path d="M405.333 774.333L385 785.333L383.667 782.667L402.667 772.5C404.333 773.333 405.333 774.333 405.333 774.333Z" fill="#AED8FC"/>
<path d="M462.167 791.167C461.333 795.167 459.5 798 456.5 799.167C455.334 799.667 453.834 800 452.334 799.833C447.167 799.333 444.167 793.5 445.5 783.667C446.833 773.833 452.667 771.833 456.834 772.667C457.167 772.833 457.5 772.833 457.834 773C462.667 775.333 463.167 785.833 462.167 791.167Z" fill="#9C27B0"/>
<path d="M462.167 791.167C461.334 795.167 459.5 798 456.5 799.167C451.334 798.5 449.5 792 450.667 783.5C451.5 777.5 453.167 774.167 457.834 773C462.667 775.333 463.167 785.833 462.167 791.167Z" fill="#F45BB3"/>
<path d="M493.5 787.5C493.667 788.334 493.333 789.167 493 789.834C492.167 791.667 490.5 793 490.5 793L455.667 791.5C455.667 791.5 451.167 785.667 457 781.333H458.5L491.5 782.5C491.5 782.667 493.167 784.5 493.5 787.5Z" fill="#9C27B0"/>
<path d="M493 790C492.167 791.833 490.5 793.167 490.5 793.167L455.667 791.667C455.667 791.667 451.167 785.833 457 781.5H458.5C458.334 782.5 458.334 785 460.834 786.833C463.167 788.667 483.167 789.667 493 790Z" fill="#F45BB3"/>
<path d="M587.667 802.5C586.5 802.5 585.167 802.167 584 801.667C580 799.833 577 789.167 577 780.833C577 776.333 577.667 772.333 579 769.167C577.5 769 576 769.167 574.5 769.667C564.5 773 566.667 786.833 566.667 786.833C566.833 788 566 789.167 564.833 789.333C563.667 789.5 562.5 788.667 562.333 787.5C561.333 781.5 562.333 769.167 573 765.5C575.833 764.5 578.667 764.333 581.167 765C582.667 763 584.5 761.5 586.667 760.5C592.5 757.667 598 757.167 602.833 759C604.5 756.333 606.667 754.333 609.167 753.333C613.667 751.5 618 751.5 621.833 753.333C628.667 756.5 632 764 633 767.167C635.667 774.667 634.5 781.167 634.5 781.5C634.333 782.667 633.167 783.5 632 783.167C630.833 783 630 781.833 630.333 780.667C630.333 780.667 631.333 775 629 768.5C628.333 766.5 625.5 759.667 620.167 757.167C617.333 755.833 614.333 756 610.833 757.333C609 758 607.667 759.333 606.667 761C611 763.833 614.333 768.833 616.333 775C618.667 782.5 617.667 789.5 613.833 792.167C611.333 793.833 608.333 793.5 605.5 791.167C601 787.5 598.5 776.5 600 767.167C600.167 765.667 600.667 764.167 601 762.833C597.333 761.667 593.167 762.167 588.5 764.333C587.167 765 586.167 765.833 585.167 766.833C590.167 770.333 593.833 777.833 595 787.167C596 795.667 593.667 799.5 591.5 801C590.5 802.167 589.167 802.5 587.667 802.5ZM583 770.667C581.833 773.333 581.333 776.333 581.333 778.833C580.833 788.333 584.333 796.833 585.833 797.667C586.5 798 588 798.5 589.167 797.667C590.833 796.333 591.5 792.667 591 787.833C590.167 781.667 587.667 774 583 770.667ZM605 765.167C604.667 766.167 604.5 767.333 604.333 768.167C603 776.333 605.5 785.833 608.333 788.167C609.667 789.167 610.667 789.5 611.5 789C613.167 787.833 614.5 783.333 612.333 776.667C610.833 771.5 608.167 767.5 605 765.167Z" fill="#9C27B0"/>
<path d="M543.333 866.167C543.333 866.833 543.333 867.5 543.167 868C541.833 873.333 538.167 872.333 534 871C529.833 869.5 507.333 855.333 502.333 852.333C497.333 849.333 493 847.5 493 847.5L495.667 841.833L499.5 833.333C499.5 833.333 521.333 843 530.5 849.333C538.667 855 543.333 861.167 543.333 866.167Z" fill="#9C27B0"/>
<path d="M543.333 866.167C543.333 866.833 543.333 867.5 543.167 868C541.833 873.333 538.167 872.333 534 871C529.833 869.5 507.333 855.333 502.333 852.333C497.333 849.333 493 847.5 493 847.5L495.667 841.833C503.5 846.667 521.5 854 535 862.667C538 864.5 541.667 866.333 543.333 866.167Z" fill="#0E2566"/>
<path d="M546.5 884.333C546.5 885 546.5 885.667 546.333 886.167C545 891.5 541.333 890.5 537.167 889.167C533 887.667 498.167 866.5 493.167 863.5C488.167 860.5 483.833 858.667 483.833 858.667L486.5 853L490.334 844.5C490.334 844.5 524.5 861 533.667 867.5C541.667 873.167 546.334 879.333 546.5 884.333Z" fill="#9C27B0"/>
<path d="M546.5 884.333C546.5 885 546.5 885.667 546.333 886.167C545 891.5 541.333 890.5 537.167 889.167C533 887.667 498.167 866.5 493.167 863.5C488.167 860.5 483.833 858.667 483.833 858.667L486.5 853C494.334 857.833 534.167 881.5 540.334 883.667C542.667 884.333 544.667 884.5 546.5 884.333Z" fill="#0E2566"/>
<path d="M536.5 895.833C536.5 896.5 536.5 897.167 536.333 897.667C535 903 531.333 902 527.167 900.667C523 899.167 488.167 878 483.167 875C478.167 872 473.833 870.167 473.833 870.167L476.5 864.5L480.334 856C480.334 856 513.667 874.333 522.667 880.833C531 886.5 536.5 890.833 536.5 895.833Z" fill="#9C27B0"/>
<path d="M536.5 895.833C536.5 896.5 536.5 897.167 536.333 897.667C535 903 531.333 902 527.167 900.667C523 899.167 488.167 878 483.167 875C478.167 872 473.833 870.167 473.833 870.167L476.5 864.5C484.334 869.333 524.167 893 530.334 895.167C532.834 895.833 534.834 896 536.5 895.833Z" fill="#0E2566"/>
<path d="M518.333 898.5C518.333 899.166 518.333 899.833 518.333 900.333C517.333 905.833 513.667 905 509.5 904C505.333 902.833 468.833 884.333 463.667 881.833C458.5 879.166 454 877.666 454 877.666L456.167 871.833L461.667 861.833C461.667 861.833 494.5 879.833 504.167 885.5C512.5 890.666 518 893.5 518.333 898.5Z" fill="#9C27B0"/>
<path d="M518.333 898.5C518.333 899.166 518.333 899.833 518.333 900.333C517.333 905.833 513.667 905 509.5 904C505.333 902.833 468.833 884.333 463.667 881.833C458.5 879.166 454 877.666 454 877.666L459 869.333C467.167 873.5 505.833 896.666 512.167 898.333C514.667 898.833 516.667 898.833 518.333 898.5Z" fill="#0E2566"/>
<path d="M499.667 833.333C499.667 833.333 495.667 845.5 486.5 859C483 864.167 479.834 868.833 477.167 872.667C475.834 874.5 474.667 876.167 473.667 877.667C470.667 881.833 468.834 884.333 468.834 884.333C468.834 884.333 456.5 880.667 443.667 873.167C430.834 865.667 419.834 857 417 853.5C413.5 849.333 415 843.333 415 843.333C415 843.333 415.167 841.833 416.334 839.333C417.667 836.5 420.167 832.5 425 828C434.334 819.5 443.167 816.5 443.167 816.5L499.667 833.333Z" fill="#9C27B0"/>
<path d="M473.667 877.5C470.667 881.667 468.834 884.167 468.834 884.167C468.834 884.167 456.5 880.5 443.667 873C430.834 865.5 419.834 856.833 417 853.333C413.5 849.167 415 843.167 415 843.167C415 843.167 415.167 841.667 416.334 839.167C426.5 850.5 435.834 857 454.334 867.5C460 870.833 468.834 875.333 473.667 877.5Z" fill="#0E2566"/>
<path d="M778.333 827.667L625.833 900.667C625.833 900.667 612.5 904 601.5 894.833C599.333 893.167 597.333 891 595.5 888.167C590.167 880 588.833 872.833 589.167 867.333C589.5 861.333 591.5 857.5 591.5 857.5L752.833 785.5C752.833 785.5 761.167 785 768.5 789.5C771.333 791.333 774 793.833 776 797.5C778.333 801.667 779.333 806.167 779.667 810.5C780.667 819.833 778.333 827.667 778.333 827.667Z" fill="#FC75BC"/>
<path d="M778.333 827.667L625.833 900.667C625.833 900.667 612.5 904 601.5 894.833L779.833 810.667C780.667 819.833 778.333 827.667 778.333 827.667Z" fill="#F45BB3"/>
<path d="M768.667 789.667L589.167 867.333C589.5 861.333 591.5 857.5 591.5 857.5L752.833 785.5C753 785.667 761.333 785.167 768.667 789.667Z" fill="#9C27B0"/>
<path d="M591.5 857.666C591.5 857.666 608.667 847.333 621 865.5C636 887.666 625.667 900.833 625.667 900.833C625.667 900.833 606.5 907.666 595.333 892.666C584.5 877.666 586.167 865.5 591.5 857.666Z" fill="#F45BB3"/>
<path d="M666.833 880.833C666.667 880.833 666.333 880.833 666.167 880.667C664.5 880.333 663.333 878.5 663.833 876.833C663.833 876.667 666.5 864.667 658.833 853C651.333 841.833 642.5 843 642.5 843C640.833 843.333 639.166 842 638.833 840.333C638.5 838.667 639.833 837 641.5 836.667C642 836.667 654.5 834.833 664.167 849.333C673.5 863.333 670.333 877.667 670.167 878.167C669.667 879.833 668.333 880.833 666.833 880.833Z" fill="#F45BB3"/>
<path d="M710.5 858.167C710.333 858.167 710 858.167 709.833 858C708.166 857.667 707 855.833 707.5 854.167C707.5 854 710 842.667 702.833 831.667C696 821.333 688 822.333 687.666 822.333C686 822.5 684.333 821.333 684 819.667C683.666 818 685 816.333 686.666 816C687.166 816 698.833 814.167 708.166 828.167C717 841.5 713.833 855.167 713.833 855.667C713.166 857.167 711.833 858.167 710.5 858.167Z" fill="#F45BB3"/>
<path d="M752 839.333C751.833 839.333 751.5 839.333 751.333 839.167C749.666 838.833 748.5 837 749 835.333C749 835.167 751.5 823.833 744.333 812.833C737.5 802.333 729.666 803.5 729.5 803.5C727.833 803.833 726.166 802.667 725.833 800.833C725.5 799.167 726.666 797.5 728.5 797.167C729 797.167 740.666 795.5 749.666 809.333C758.333 822.667 755.333 836.167 755.166 836.833C754.833 838.333 753.5 839.333 752 839.333Z" fill="#F45BB3"/>
<path d="M687.334 646C675.334 668.833 656.667 685.667 644.167 686C634.834 686.167 631.834 682.667 633.334 672.5C633.834 669.167 634.834 665.167 636.167 660.167C641.834 640.333 652 622 657.834 612.5C666.5 598.667 681.334 601 688.834 606.833C690 607.667 691 608.667 691.834 609.667C698.167 616.667 697.667 626 687.334 646Z" fill="#9C27B0"/>
<path d="M687.334 646C675.334 668.833 656.667 685.667 644.167 686C634.834 686.167 631.834 682.667 633.334 672.5C635.5 675.167 639.167 677.333 645 676.167C657.334 673.667 679.5 650.667 687.667 629.167C691 620.333 692 614 692 609.667C698.167 616.667 697.667 626 687.334 646Z" fill="#0E2566"/>
<path d="M683 616.167C683.5 623.5 676.834 635 666.834 643C656.834 651 650.5 645.167 654.5 632C658.667 618.833 668.334 607 675 607C679.334 607 682.5 610.167 683 616.167Z" fill="#0E2566"/>
<path d="M673.833 628.5C672.667 630.667 671.167 632.333 669.667 633.667C664.833 638 659.334 639 659.334 639C659.334 639 618.667 628.333 571.167 576C544.834 547 532 523.5 525.667 508.167C520.5 495.833 519.833 488.833 519.833 488.833C519.833 488.833 520.167 484.333 524.833 479.833C527.667 477 532.334 474 539.5 472C543.5 470.833 547.167 470.5 550.167 470.667C561.667 471.167 566.167 478.667 566.167 478.667C566.167 478.667 567.667 483.167 570.5 490.167C577.667 508 593.833 542.333 618 565C652 596.5 674.667 608.5 674.667 608.5C674.667 608.5 675.834 611.833 676.167 616.333C676.667 620.167 676.167 624.5 673.833 628.5Z" fill="#FC75BC"/>
<path d="M669.667 633.667C664.833 638 659.333 639 659.333 639C659.333 639 618.667 628.333 571.167 576C523.667 523.667 520 488.833 520 488.833C520 488.833 520.333 484.333 525 479.833C533.167 500.667 556.333 551.333 602.333 587.833C635.5 614 657.167 627.167 669.667 633.667Z" fill="#F45BB3"/>
<path d="M676.333 616.333C661.167 608.833 630.667 591.667 603.833 564.167C572.833 532.167 555.333 485.5 550.333 470.667C561.833 471.167 566.333 478.667 566.333 478.667C566.333 478.667 584.333 533.333 618.333 565C652.333 596.5 675 608.5 675 608.5C675 608.5 676.167 611.833 676.333 616.333Z" fill="#9C27B0"/>
<path d="M570.667 490.167C568.167 491.833 565.5 493.667 562.667 495.333C546.334 505 533.5 507.667 525.667 508.167C520.5 495.833 519.833 488.833 519.833 488.833C519.833 488.833 520.167 484.333 524.833 479.833C527.667 477 532.334 474 539.5 472C543.5 470.833 547.167 470.5 550.167 470.667C561.667 471.167 566.167 478.667 566.167 478.667C566.167 478.667 567.833 483 570.667 490.167Z" fill="#F45BB3"/>
<path d="M541.333 524.5C537.167 524.5 534.333 523.833 534.167 523.833C533 523.5 532.333 522.333 532.5 521.333C532.833 520.167 533.833 519.5 535 519.667C535.167 519.667 547.333 522.333 558.5 515.667C569.5 509 570.667 501.833 570.667 501.833C570.833 500.667 571.833 499.833 573 500C574.167 500.167 575 501.167 574.833 502.333C574.833 502.667 573.5 511.5 560.667 519.333C553.833 523.5 546.5 524.5 541.333 524.5Z" fill="#F45BB3"/>
<path d="M567.834 568.167C565.667 568.167 564.334 567.833 564.167 567.833C563 567.5 562.334 566.333 562.667 565.167C563 564 564.167 563.333 565.334 563.667C565.667 563.833 573.5 565.667 584 557.167C593.667 549.333 593.833 542.333 593.833 542C593.833 540.833 594.834 539.833 596 539.833C597.167 539.833 598.167 540.833 598.167 542C598.167 542.333 598 551.333 586.667 560.5C578.834 567 571.834 568.167 567.834 568.167Z" fill="#F45BB3"/>
<path d="M592.667 596.167C591.333 596.167 590.5 595.167 590.5 594C590.5 592.833 591.5 591.833 592.667 591.833C593 591.833 603 591.833 610.333 584.5C617.5 577.333 616.5 569.333 616.5 569C616.333 567.833 617.167 566.833 618.333 566.667C619.5 566.5 620.5 567.333 620.667 568.5C620.667 569 622 579 613.333 587.667C605 596 594 596.167 592.667 596.167Z" fill="#F45BB3"/>
<path d="M624.667 620.833C624.333 620.833 624.167 620.833 624 620.833C622.833 620.667 622 619.667 622 618.5C622.167 617.333 623.167 616.5 624.333 616.5C624.667 616.5 631.833 616.833 638.833 608.167C644.167 601.667 642.333 591.667 642.333 591.5C642.167 590.333 642.833 589.167 644 589C645.167 588.833 646.333 589.5 646.5 590.667C646.667 591.167 648.667 602.667 642.167 610.833C634.667 620.167 626.833 620.833 624.667 620.833Z" fill="#F45BB3"/>
<path d="M480.167 728.667C471.5 731.333 443.833 732.5 421.5 732.167C401.167 731.833 392 728.5 399.167 720.833C399.833 720 400.833 719.167 402 718.333C413.833 708.833 442.333 700.833 455.833 699.833C468.5 698.833 479.667 697.333 482 702C483.5 705 485.167 710.833 485.5 716.333C485.833 722 484.667 727.333 480.167 728.667Z" fill="#9C27B0"/>
<path d="M480.167 728.667C471.5 731.333 443.833 732.5 421.5 732.167C401.167 731.833 392 728.5 399.167 720.833C405 722.5 417 724.667 439.167 724C465.833 723.167 478.333 720 485.333 716.333C485.833 722 484.667 727.333 480.167 728.667Z" fill="#0E2566"/>
<path d="M448.167 701.167C434.667 702.833 422 711.667 438.667 712.667C458.5 713.833 482.333 704.833 480.333 701.833C478.333 698.667 462.5 699.333 448.167 701.167Z" fill="#0E2566"/>
<path d="M478.666 700.333C478.666 700.333 476.833 704.5 467.666 707.833C467 708.167 466.166 708.333 465.166 708.667C459.166 710.5 452.5 710.167 447.5 709.333C443.333 708.667 440.5 707.833 440.5 707.833C440.5 707.833 421 668.5 414.333 633C407.666 597.5 403.166 568.667 412 531.667C414 523.667 415.666 517.167 417.333 511.833C423.166 492.667 427 489.167 427 489.167C427 489.167 430.333 488.167 435.166 487.5C442 486.5 451.833 486.5 458.667 491.5C460.5 492.833 462 494.167 463.5 495.5C471.166 502.667 473.166 509.5 473.166 509.5C473.166 509.5 467.833 517 462.5 531.333C457.333 545.333 452 565.833 451.833 592.333C451.333 645.833 478.666 700.333 478.666 700.333Z" fill="#FC75BC"/>
<path d="M478.667 700.333C478.667 700.333 476.833 704.5 467.667 707.833C458.833 690.5 446.333 659.667 439.5 613.333C430.333 549.833 454.5 508.5 463.5 495.667C471.167 502.833 473.167 509.667 473.167 509.667C473.167 509.667 452.333 539 451.833 592.5C451.333 646 478.667 700.333 478.667 700.333Z" fill="#F45BB3"/>
<path d="M447.666 709.333C443.5 708.667 440.666 707.833 440.666 707.833C440.666 707.833 421.166 668.5 414.5 633C407.833 597.5 403.333 568.667 412.166 531.667C421 494.833 427.166 489.167 427.166 489.167C427.166 489.167 430.5 488.167 435.333 487.5C429 500.667 414.166 537 417.166 584.833C420.166 633.167 439.833 688.833 447.666 709.333Z" fill="#9C27B0"/>
<path d="M455.833 547.334C455.167 547.334 454.5 547 454.167 546.5C454.167 546.5 449.167 539.834 436.667 536.667C423.833 533.5 415.167 535.667 415.167 535.667C414 536 412.833 535.334 412.5 534.167C412.167 533 412.833 531.834 414 531.5C414.333 531.334 423.667 529 437.667 532.5C451.833 536 457.333 543.667 457.667 544C458.333 545 458.167 546.334 457.167 547C456.667 547.167 456.167 547.334 455.833 547.334Z" fill="#F45BB3"/>
<path d="M449.833 591.334C449.333 591.334 448.666 591.167 448.333 590.667C448.333 590.667 442.666 585.167 430.666 584.167C418.5 583.334 411 586.834 411 586.834C410 587.334 408.666 586.834 408.166 585.834C407.666 584.834 408 583.5 409.166 583C409.5 582.834 417.666 578.834 431.166 579.834C444.833 580.834 451.333 587.334 451.666 587.5C452.5 588.334 452.5 589.667 451.666 590.5C450.833 591.167 450.333 591.334 449.833 591.334Z" fill="#F45BB3"/>
<path d="M431.166 634.5C422 634.5 416 632.167 415.833 632C414.666 631.5 414.166 630.334 414.666 629.167C415.166 628 416.333 627.5 417.5 628C417.5 628 424.166 630.667 434.166 630C444.166 629.5 451.666 625.5 451.666 625.5C452.666 625 454 625.334 454.5 626.334C455 627.334 454.666 628.667 453.666 629.167C453.333 629.334 445.333 633.5 434.333 634.167C433.333 634.5 432.166 634.5 431.166 634.5Z" fill="#F45BB3"/>
<path d="M440.166 676C432 676 427.333 673.5 427.166 673.334C426.166 672.834 425.666 671.5 426.333 670.5C426.833 669.5 428.166 669.167 429.166 669.667C429.333 669.667 435.333 672.833 446 671.333C456.5 669.833 460.5 665.5 460.5 665.5C461.333 664.667 462.666 664.5 463.5 665.334C464.333 666.167 464.5 667.5 463.666 668.334C463.5 668.5 458.833 673.833 446.5 675.5C444.333 676 442.166 676 440.166 676Z" fill="#F45BB3"/>
<path d="M473.333 509.5C473.333 509.5 468 517 462.667 531.333C460.333 530 457.833 528.667 455.167 527.167C439.167 518.167 425.667 513.833 417.5 511.833C423.333 492.667 427.167 489.167 427.167 489.167C427.167 489.167 430.5 488.167 435.333 487.5C442.167 486.5 452 486.5 458.833 491.5C460.667 492.833 462.167 494.167 463.667 495.5C471.333 502.833 473.333 509.5 473.333 509.5Z" fill="#F45BB3"/>
<path d="M430.5 332.667C430.5 332.667 414 374.833 407 402.667C400 430.5 384.5 489.833 384.5 489.833C384.5 489.833 380 493.833 373.667 495.667C371 496.333 368.167 496.833 365.167 496.333C355 494.667 348.667 486.667 348.667 486.667C348.667 486.667 361.5 450.333 371.167 414C380.834 377.5 400 313.333 400 313.333C411.834 312 419.167 313.833 423.667 316.667C432.667 322.5 430.5 332.667 430.5 332.667Z" fill="#FC75BC"/>
<path d="M430.5 332.667C430.5 332.667 414 374.833 407 402.667C400 430.5 384.5 489.833 384.5 489.833C384.5 489.833 380 493.833 373.667 495.667C377.334 481.833 383.667 458.167 390.834 429.5C401 389.333 419 331.667 423.5 316.833C432.667 322.5 430.5 332.667 430.5 332.667Z" fill="#F45BB3"/>
<path d="M388 466.833C387.167 466.833 386.334 466.333 386 465.5C386 465.5 383 457.833 376.5 456.333C368.167 454.333 363.5 456.333 363.5 456.333C362.5 456.833 361.167 456.333 360.667 455.333C360.167 454.333 360.667 453 361.667 452.5C361.834 452.333 367.5 449.667 377.5 452.167C386.167 454.167 389.834 463.667 390 464C390.5 465.167 389.834 466.333 388.834 466.833C388.5 466.833 388.334 466.833 388 466.833Z" fill="#F45BB3"/>
<path d="M400.834 419.333C400 419.333 399.334 418.833 398.834 418.167C398.834 418.167 395 410.5 388.834 409C380.834 407.167 376.5 409 376.5 409C375.5 409.5 374.167 409 373.667 408C373.167 407 373.667 405.667 374.667 405.167C374.834 405 380.334 402.5 390 404.833C398.167 406.833 402.667 415.833 402.834 416.167C403.334 417.167 402.834 418.5 401.834 419C401.5 419.167 401.167 419.333 400.834 419.333Z" fill="#F45BB3"/>
<path d="M413.667 372.5C412.833 372.5 412.167 372 411.833 371.333C411.833 371.333 408.5 364.667 402.167 363C394.167 361 389.667 363 389.667 363C388.667 363.5 387.333 363 386.833 362C386.333 361 386.833 359.667 387.833 359.167C388 359 393.5 356.5 403.167 358.833C411.333 360.833 415.333 369 415.5 369.333C416 370.333 415.5 371.667 414.5 372.167C414.333 372.333 414 372.5 413.667 372.5Z" fill="#F45BB3"/>
<path d="M384.5 489.667L379.167 523.833C379.167 523.833 376 525 371.334 526C368.167 526.833 364.167 527.5 360.334 527.667C349 528.333 344 526.667 344 526.667C344 526.667 342 522.333 344 507.667C345.834 493 349.167 485 349.167 485C349.167 485 354.5 482 365.667 483C369.834 483.333 373.167 484.167 375.834 485C381.834 487 384.167 489.333 384.5 489.667Z" fill="#9C27B0"/>
<path d="M384.5 489.667L379.167 523.833C379.167 523.833 376 525 371.333 526L375.833 485C381.833 487 384.167 489.333 384.5 489.667Z" fill="#0E2566"/>
<path d="M376.167 500.167L387.333 513.667C387.333 513.667 391.5 520.5 397.167 516.833C401 514.167 396.667 508.5 395.333 506.167C395 505.5 389.333 497.833 385.667 492.833C383.167 489.5 378.167 489.667 376 493.167C374.667 494.667 374.333 497 376.167 500.167Z" fill="#9C27B0"/>
<path d="M344.167 525C344.167 525 345.834 539.333 348.167 546C350.5 552.833 354.167 560.167 356.334 561.167C358.5 562.167 360.334 560 360.667 556.667C361 553.333 358.334 547.167 357.167 539.333C356 531.5 355 525.5 355 525.5C355 525.5 348.5 519.167 344.167 525Z" fill="#9C27B0"/>
<path d="M355.333 525.167C355.333 525.167 358.5 540.333 361.5 547.333C364.5 554.333 369 562 371.167 562.833C373.333 563.667 375 561.333 375 557.667C375 554 371.667 547.833 369.667 539.5C367.667 531.167 367.833 524.333 367.833 524.333C367.833 524.333 359 518.5 355.333 525.167Z" fill="#9C27B0"/>
<path d="M367.833 522.833C367.833 522.833 371 537 374 543.5C377 550 381.5 557.167 383.667 558C385.833 558.833 387.5 556.5 387.5 553.167C387.5 549.833 384.167 544 382.167 536.167C380.167 528.5 378.667 522.667 378.667 522.667C378.667 522.667 371.5 516.667 367.833 522.833Z" fill="#9C27B0"/>
<path d="M588.167 430.167C588.167 430.167 586.833 435.333 583.333 443.333C580.333 450 575.833 458.833 569.167 468C564 475.167 550.5 487.167 531.667 496.333C517.333 503.333 500 508.667 480.833 509C445 509.5 425.333 500.833 415.333 493.667C408.5 488.667 406 484.5 406 484.5L459.5 468.5L588.167 430.167Z" fill="#FFB3DB"/>
<path d="M531.667 496.333C517.333 503.333 500 508.667 480.833 509C445 509.5 425.333 500.833 415.333 493.667C408.5 488.667 406 484.5 406 484.5L459.5 468.5C467.833 474.5 498.5 470.5 534.5 478.833C537.333 479.5 536 490.667 531.667 496.333Z" fill="#FC75BC"/>
<path d="M588.167 430.167C588.167 430.167 586.833 435.333 583.333 443.333C579.833 447.333 575.833 451.667 571 456.333C552 474.833 534.333 485.667 534.333 485.667C534.333 485.667 513.833 492.833 479.833 494.667C454.833 496 427.667 494.333 415 493.5C408.167 488.5 405.667 484.333 405.667 484.333L588.167 430.167Z" fill="#9C27B0"/>
<path d="M535.333 478L533.166 478.5C525.666 480.5 499 486.833 464.666 488.667C450.5 489.333 439 489.167 430.167 488.333C413.667 487 406 484.333 406 484.333L392.667 304.833L404.333 302.667L473.333 290C473.333 290 486.166 327.333 504 379.5C521.666 431.5 535.333 478 535.333 478Z" fill="#FC75BC"/>
<path d="M588.167 430.167C588.167 430.167 582.333 437.333 570.5 449.5L570.334 449.667C558.334 462 535.334 478 535.334 478H535.167C531.167 463.833 523.334 437.5 514.334 410.5C501 371 473.333 290 473.333 290L490.667 266L500 253C500 253 524.667 276.5 547.5 323C570.333 369.5 588.167 430.167 588.167 430.167Z" fill="#9C27B0"/>
<path d="M500 253L473.333 290L392.5 304.833L422 273.333L473.667 259.833L500 253Z" fill="#FC75BC"/>
<path d="M430.167 488.5C413.667 487.167 406 484.5 406 484.5L392.667 305L404.333 302.833L430.167 488.5Z" fill="#F45BB3"/>
<path d="M473.667 259.833C471 265 467.333 270.833 462.167 276.5C449.5 290.5 435.5 296.5 435.5 296.5L392.5 304.833L421.833 273.333L473.667 259.833Z" fill="#F45BB3"/>
<path d="M588.167 430.167C588.167 430.167 582.333 437.333 570.5 449.5C563.333 424.667 553.166 392.833 539.666 359.333C521.166 313 502.667 282.833 490.667 266L500 253C500 253 524.667 276.5 547.5 323C570.333 369.5 588.167 430.167 588.167 430.167Z" fill="#FFB3DB"/>
<path d="M506 449.5C506.333 451.833 504.666 453.833 502.333 453.833C500 453.833 498 452 497.666 449.5C497.333 447.167 499 445.167 501.333 445.167C503.666 445.167 505.666 447.167 506 449.5Z" fill="#F45BB3"/>
<path d="M482.833 349.167C482.833 351.5 481.167 353.5 478.833 353.5C476.5 353.5 474.667 351.5 474.5 349.167C474.5 346.833 476.167 344.833 478.5 344.833C480.833 344.833 482.667 346.667 482.833 349.167Z" fill="#F45BB3"/>
<path d="M409.833 361C409.833 363.167 408.333 364.833 406.333 364.833C404.333 364.833 402.667 363.167 402.667 361C402.667 358.833 404.166 357.167 406.166 357.167C408.166 357.167 409.833 358.833 409.833 361Z" fill="#FC75BC"/>
<path d="M421.667 457.167C421.667 459.333 420.167 461 418.167 461C416.167 461 414.5 459.333 414.5 457.167C414.5 455 416 453.333 418 453.333C419.833 453.333 421.5 455 421.667 457.167Z" fill="#FC75BC"/>
<path d="M543.333 462.833C543.5 465.333 541.833 467.333 539.5 467.333C537.166 467.333 535.166 465.333 535 462.833C534.833 460.333 536.5 458.333 538.833 458.333C541.166 458.167 543.166 460.333 543.333 462.833Z" fill="#FC75BC"/>
<path d="M583.666 426.833C583.833 428.667 582.5 430.333 580.666 430.333C579 430.333 577.333 428.833 577.333 426.833C577.166 425 578.5 423.333 580.333 423.333C582 423.5 583.666 425 583.666 426.833Z" fill="#FC75BC"/>
<path d="M530.833 307.167C533.167 322.333 525.5 334.5 513.5 334.5C501.5 334.5 489.833 322.167 487.5 307.167C485.167 292 492.833 279.833 504.833 279.833C516.833 279.667 528.5 292 530.833 307.167Z" fill="#F45BB3"/>
<path d="M529.667 301.333C533.333 313.167 529.667 324 521.667 325.333C513.667 326.667 504.167 318.167 500.667 306.167C497 294.333 500.667 283.5 508.667 282.167C516.667 280.833 526 289.5 529.667 301.333Z" fill="#9C27B0"/>
<path d="M522.5 302.833C524 307.667 522.5 312.167 519.166 312.667C515.833 313.167 512 309.667 510.5 304.833C509 300 510.5 295.5 513.833 295C517.166 294.333 521 297.833 522.5 302.833Z" fill="#F45BB3"/>
<path d="M572.667 327.333C570.667 327.333 568.333 327 566 326.166C559 323.5 557 321.666 549.5 314.5C547.833 312.833 545.833 311 543.5 308.833C532.667 298.666 521.5 306.166 521 306.5C519.5 307.5 517.5 307.166 516.5 305.666C515.5 304.166 515.833 302.166 517.333 301.166C522.833 297.333 536.333 293.166 547.833 304.166C550.167 306.333 552.166 308.333 553.833 309.833C561 316.833 562.333 318 568.167 320.166C576.5 323.166 581 317.166 581.5 316.5C582.5 315 584.5 314.666 586 315.666C587.5 316.666 587.833 318.666 586.833 320.166C585 323.166 579.833 327.333 572.667 327.333Z" fill="#9C27B0"/>
<path d="M498.166 440.5L497.333 440.667L475.167 443.167L456.833 445.167L452.667 445.667L438.5 447.167L437.5 447.333L434.833 447.5L419.167 449.333L417 432L409.167 368.5L423.666 366.167L437.667 364H437.833L451.667 361.833L478.333 357.667L482.667 376.333L483.166 378L487.333 396L488.166 399L492.667 417.833L498 439.833L498.166 440.5Z" fill="#0E2566"/>
<path d="M498.167 440.5L497.333 440.667L475.167 443.167L456.833 445.167L452.667 445.667L438.5 447.167L437.5 447.333L434.833 447.5L427 385L441.667 382.833L455.5 380.667L455.667 380.5L469.667 378.333L482.667 376.333L483.167 378L487.333 396L488.167 399L492.667 417.833L498 439.833L498.167 440.5Z" fill="#9C27B0"/>
<path d="M474 432.5C474 436.5 475.834 440.167 478.667 442.5L463 444.167L459.334 444.5L447.167 445.833L446.834 439.333L446.333 427.5L457.167 427.167C457.5 425.5 457.834 423.833 458.5 422.167L448.167 415.333L459.334 398.5L470.667 407C472 406.167 473.333 405.5 474.667 404.833L471.333 390.333L480 388.167L485.167 386.833L488.833 402.167L489.5 404.833L493.334 421C491.5 419.833 489.167 419.333 486.834 419.333C480 419.333 474 425.333 474 432.5Z" fill="#D2E9FF"/>
<path d="M441 387.834L427.166 389.834L423.667 366.167L437.667 364L441 387.834Z" fill="#D2E9FF"/>
<path d="M453.833 378.167L439.833 380L437.667 364L451.5 361.833L453.833 378.167Z" fill="#AED8FC"/>
<path d="M437.5 447.333L419.167 449.334L417 432L435.333 429.833L437.5 447.333Z" fill="#AED8FC"/>
<path d="M474 432.5C474 436.5 475.833 440.167 478.667 442.5L463 444.167L459.333 444.5L447.167 445.833L447 442.667L466.833 440.833C466.833 440.833 463.667 430.167 469.5 420.167C475.333 410.167 484.833 410.167 484.833 410.167L480.167 388L485.333 386.667L489 402L489.667 404.667L493.5 420.833C491.667 419.667 489.333 419.167 487 419.167C480 419.333 474 425.333 474 432.5Z" fill="#AED8FC"/>
<path d="M378.667 397C367.667 397 361.333 390.167 359.5 386C358.667 384.333 359.5 382.5 361 381.667C362.667 380.833 364.5 381.667 365.333 383.167C365.5 383.5 370 392.167 382.167 390.167C389.167 389 391.5 385.833 394.167 382.333C396.5 379.167 399.167 375.5 405 373.833C413.333 371.333 421.667 377.5 422 377.833C423.333 378.833 423.667 381 422.667 382.333C421.667 383.667 419.667 384 418.167 383C418 383 412 378.5 406.833 380C403.167 381.167 401.5 383.333 399.333 386.167C396.5 390.167 392.833 395 383.167 396.667C381.667 397 380.167 397 378.667 397Z" fill="#AED8FC"/>
<path d="M390.667 415C380.834 419.833 372.167 416.666 368.5 413.833C367.167 412.666 366.834 410.666 368 409.333C369.167 408 371.167 407.666 372.5 408.833C372.834 409 380.667 414.833 390.834 407.5C396.667 403.333 397.334 399.5 398 395C398.667 391 399.5 386.666 403.834 382.5C410.167 376.5 420.334 378.333 420.834 378.5C422.5 378.833 423.667 380.5 423.334 382.166C423 383.833 421.334 385 419.667 384.666C419.5 384.666 412.167 383.333 408.167 387.166C405.334 389.833 404.834 392.666 404.334 396.166C403.5 401 402.5 407 394.5 412.833C393.334 413.5 392 414.333 390.667 415Z" fill="#FEC272"/>
<path d="M471.667 217.167C471.667 217.167 463.333 233.5 447.833 249.167C440.333 256.833 431.167 264.167 420.333 269.5C405.5 276.833 391.667 282.167 380.833 285.667C367.167 290.167 358.333 292 358.333 292C358.333 292 329 242.833 324.667 205.5C321.667 179 330.667 160.333 346.5 147.833C350.5 144.667 355 141.833 359.833 139.5C363 138 366.167 136.667 369.5 135.333C398.833 124.667 426.167 144.5 440 161.5C454 178.667 471.667 217.167 471.667 217.167Z" fill="#FC75BC"/>
<path d="M380.833 285.667C367.167 290.167 358.333 292 358.333 292C358.333 292 329 242.833 324.667 205.5C321.667 179 330.667 160.333 346.5 147.833C343.667 162.333 342.5 181.333 348.5 201.333C356 225.5 370.167 260.333 380.833 285.667Z" fill="#F45BB3"/>
<path d="M395.244 248.451C407.539 243.499 412.405 226.818 406.112 211.193C399.818 195.568 384.749 186.916 372.454 191.868C360.159 196.82 355.294 213.501 361.587 229.126C367.88 244.751 382.949 253.403 395.244 248.451Z" fill="#9C27B0"/>
<path d="M391.127 245.563C401.8 241.265 405.992 226.705 400.49 213.044C394.987 199.383 381.875 191.793 371.202 196.091C360.529 200.39 356.337 214.949 361.84 228.611C367.342 242.272 380.454 249.862 391.127 245.563Z" fill="#9C27B0"/>
<path d="M388.052 240.945C396.932 237.368 400.451 225.333 395.911 214.062C391.372 202.791 380.493 196.554 371.614 200.13C362.734 203.707 359.215 215.743 363.754 227.013C368.294 238.284 379.172 244.521 388.052 240.945Z" fill="#0E2566"/>
<path d="M347.862 265.039C354.266 262.46 355.275 249.987 350.117 237.179C344.959 224.372 335.586 216.08 329.182 218.659C322.778 221.238 321.769 233.712 326.927 246.519C332.085 259.327 341.458 267.618 347.862 265.039Z" fill="#FC75BC"/>
<path d="M344.825 265.147C350.801 262.74 351.772 251.168 346.991 239.299C342.211 227.431 333.491 219.761 327.514 222.169C321.538 224.576 320.567 236.148 325.347 248.017C330.128 259.885 338.848 267.555 344.825 265.147Z" fill="#9C27B0"/>
<path d="M342.147 261.182C346.928 259.256 347.682 249.943 343.831 240.38C339.979 230.817 332.981 224.626 328.199 226.551C323.418 228.477 322.664 237.791 326.515 247.354C330.367 256.916 337.365 263.108 342.147 261.182Z" fill="#0E2566"/>
<path d="M427.834 104.167L418.5 144L404.167 142.5L381 140.167L369.333 139L395.333 90.8333C395.333 90.8333 398 89.6667 401.833 88.8333C405.833 87.8333 410.833 87.5 415.167 89.1667C417.667 90.1667 419.833 92 421.5 93.8333C425.667 98.5 427.834 104.167 427.834 104.167Z" fill="#FC75BC"/>
<path d="M427.834 104.167L418.5 144L404.167 142.5L421.5 94C425.667 98.5 427.834 104.167 427.834 104.167Z" fill="#F45BB3"/>
<path d="M401.833 88.8333L381 140.167L369.333 139L395.333 90.8333C395.333 90.8333 398 89.6666 401.833 88.8333Z" fill="#9C27B0"/>
<path d="M422.5 115.667C421.5 115.667 420.667 115 420.5 114.167C420.333 113.833 418 106.667 407 103.667C398.333 101.167 393.167 104 393.167 104.167C392.167 104.833 390.834 104.333 390.167 103.333C389.5 102.333 390 101 391 100.333C391.334 100.167 397.833 96.5 408.167 99.5C421.5 103.333 424.333 112.5 424.5 113C424.833 114.167 424.167 115.333 423 115.667C423 115.667 422.667 115.667 422.5 115.667Z" fill="#F45BB3"/>
<path d="M418.833 132.333C417.833 132.333 417 131.667 416.667 130.667C416.667 130.333 414.667 122.333 402.5 118.667C390.333 115 385.333 119.5 385 119.833C384.167 120.667 382.833 120.667 382 119.833C381.167 119 381.167 117.667 382 116.833C382.333 116.5 388.833 110.333 403.667 114.667C418.333 119.167 420.667 129.333 420.667 129.833C420.833 131 420.167 132.167 419 132.333C419.167 132.333 419 132.333 418.833 132.333Z" fill="#F45BB3"/>
<path d="M471.667 217.167C471.667 217.167 463.334 233.5 447.834 249.167C434 220.5 409.667 173.167 392.667 156.5C381.334 145.333 369.5 141 359.833 139.667C363 138.167 366.167 136.833 369.5 135.5C398.833 124.833 426.167 144.667 440 161.667C454 178.667 471.667 217.167 471.667 217.167Z" fill="#9C27B0"/>
<path d="M484.167 229.5C484.167 229.5 468.167 254 441.833 272.833C438.333 275.333 434.5 277.833 430.667 280C416.667 288.167 401.833 294.333 389.5 298.833C373 304.833 361 307.667 361 307.667L352.5 282.167C352.5 282.167 366.333 276.667 384.167 268.333C386.167 267.333 388.167 266.333 390.333 265.333C411 255.333 418.833 249 418.833 249L416.667 226.167C416.667 226.167 420.5 223.667 425.833 220C431.667 216 439.167 210.667 444.5 206.167C454.667 197.667 458.333 190.5 458.333 190.5C458.333 190.5 467.167 201.333 473.833 211.833C480.5 222.167 484.167 229.5 484.167 229.5Z" fill="#FC75BC"/>
<path d="M484.167 229.5C484.167 229.5 468.167 254 441.833 272.833L425.667 220.167C431.5 216.167 439 210.833 444.333 206.333C454.5 197.833 458.167 190.667 458.167 190.667C458.167 190.667 467 201.5 473.667 212C480.5 222.167 484.167 229.5 484.167 229.5Z" fill="#9C27B0"/>
<path d="M389.667 298.833C373.167 304.833 361.166 307.667 361.166 307.667L352.667 282.167C352.667 282.167 366.5 276.667 384.333 268.333L389.667 298.833Z" fill="#F45BB3"/>
<path d="M459.667 190.167C462 204.667 454.5 216.333 443.167 216.333C431.834 216.333 420.667 204.667 418.334 190.167C416 175.667 423.5 164 434.834 164C446.167 164 457.334 175.667 459.667 190.167Z" fill="#F45BB3"/>
<path d="M459.667 184.833C463.5 197.667 459.667 209.333 451 210.833C442.333 212.333 432 203 428.167 190C424.333 177 428.167 165.5 436.833 164C445.5 162.667 455.667 172 459.667 184.833Z" fill="#9C27B0"/>
<path d="M453.5 183.5C455.334 189.333 453.5 194.5 449.667 195.167C445.834 195.833 441.167 191.667 439.334 185.833C437.5 180 439.334 174.833 443.167 174.167C447.167 173.667 451.834 177.833 453.5 183.5Z" fill="#FC75BC"/>
<path d="M361.667 377C361 376.667 360.667 376.167 360.5 375.5L359 368.167C358.833 367 359.5 365.833 360.667 365.667C361.833 365.5 363 366.167 363.167 367.333L364.667 374.667C364.833 375.833 364.167 377 363 377.167C362.5 377.167 362 377.167 361.667 377Z" fill="#FEC272"/>
<path d="M354.666 381.167C354.5 381.167 354.5 381.167 354.333 381L343.666 376C342.666 375.5 342.166 374.333 342.5 373.167C343 372.167 344.166 371.667 345.333 372L356 377C357 377.5 357.5 378.667 357.166 379.833C356.833 381 355.666 381.333 354.666 381.167Z" fill="#FEC272"/>
<path d="M344.333 392.5C343.833 392.333 343.5 391.833 343.333 391.333C343 390.167 343.5 389 344.667 388.667L353 386C354.167 385.667 355.333 386.167 355.667 387.333C356 388.5 355.5 389.667 354.333 390L346 392.667C345.333 392.833 344.833 392.833 344.333 392.5Z" fill="#FEC272"/>
<path d="M591.167 307.167C590.667 307.333 590 307.167 589.5 307C588.5 306.333 588.166 305 588.833 304L593.667 295.833C594.333 294.833 595.667 294.5 596.667 295.167C597.667 295.833 598 297.167 597.333 298.167L592.5 306.333C592.167 306.667 591.667 307 591.167 307.167Z" fill="#FEC272"/>
<path d="M594.833 317.5C594 317.5 593.167 316.833 593 316C592.667 314.833 593.333 313.667 594.5 313.333L608.667 309C609.833 308.667 611 309.333 611.333 310.5C611.667 311.667 611 312.833 609.833 313.167L595.667 317.5C595.333 317.5 595.167 317.667 594.833 317.5Z" fill="#FEC272"/>
<path d="M600.166 332.667C600 332.667 599.833 332.667 599.5 332.5L593.666 330.167C592.5 329.667 592 328.5 592.5 327.333C593 326.167 594.166 325.667 595.333 326.167L601.166 328.5C602.333 329 602.833 330.167 602.333 331.333C602 332.333 601 332.833 600.166 332.667Z" fill="#FEC272"/>
<path d="M501.833 224.167C501.666 224.167 501.5 224.167 501.333 224.167C500.166 223.833 499.5 222.833 499.666 221.667L503.5 204.833C503.833 203.667 504.833 203 506 203.167C507.166 203.5 507.833 204.5 507.666 205.667L503.833 222.5C503.666 223.5 502.833 224.167 501.833 224.167Z" fill="#FEC272"/>
<path d="M512.333 231.333C511.667 231.333 510.833 231 510.5 230.333C509.833 229.333 510.167 228 511.333 227.333L531.333 215.667C532.333 215 533.667 215.333 534.333 216.5C535 217.5 534.667 218.833 533.5 219.5L513.5 231.167C513 231.167 512.667 231.333 512.333 231.333Z" fill="#FEC272"/>
<path d="M538.5 246.833L517 245.667C515.833 245.667 514.833 244.667 515 243.5C515 242.333 516 241.333 517.166 241.5L538.5 242.667C539.666 242.667 540.666 243.667 540.5 244.833C540.666 246 539.666 246.833 538.5 246.833Z" fill="#FEC272"/>
</g>
<defs>
<clipPath id="clip0_102_15020">
<rect width="1000" height="1000" rx="50" fill="white"/>
</clipPath>
</defs>
</svg>
